<svg version="1.1" xmlns="http://www.w3.org/2000/svg" style="display: block;" viewBox="0 0 2048 2048" width="2048" height="2048" preserveAspectRatio="none">
<path transform="translate(0,0)" fill="rgb(111,170,169)" d="M 1316.89 655.393 C 1349.29 655.021 1378.88 672.567 1388.32 703.151 C 1394.65 723.655 1391.93 777.497 1391.94 800.229 L 1391.93 940.462 L 1391.91 1065.59 C 1391.92 1089.46 1394.77 1137.47 1387.1 1159.52 C 1378.32 1184.79 1353.99 1198.44 1328.34 1203.87 C 1287.18 1204.74 1252.66 1178.93 1251.28 1135.77 C 1250.37 1107.61 1250.87 1079.19 1250.84 1051 L 1250.85 881.613 L 1250.83 775.463 C 1250.8 741.61 1245.08 706.057 1268.84 679.035 C 1281.06 665.054 1298.36 656.542 1316.89 655.393 z"/>
<path transform="translate(0,0)" fill="rgb(111,170,169)" d="M 921.249 655.405 C 951.202 651.398 988.151 679.035 993.123 707.8 C 997.096 730.79 995.497 764.036 995.507 788.142 L 995.505 921.987 L 995.59 1064.03 C 995.618 1088.47 996.716 1114.19 994.996 1138.47 C 992.297 1176.56 964.463 1197.21 929.844 1203.82 C 911.368 1204.41 893.34 1198.05 879.324 1186 C 864.69 1173.31 855.783 1155.25 854.609 1135.92 C 853.139 1113.58 854.29 1076.31 854.311 1052.97 L 854.489 889.72 L 854.359 777.059 C 854.339 757.368 853.234 734.362 855.56 714.939 C 859.485 682.161 888.556 657.451 921.249 655.405 z"/>
<path transform="translate(0,0)" fill="rgb(68,131,135)" d="M 720.564 852.365 C 736.921 851.729 747.893 853.518 762.381 861.402 C 807.683 886.055 797.434 949.384 797.459 992.676 L 797.473 1150.21 L 797.567 1266.69 C 797.624 1323.92 808.165 1379.91 739.196 1398 C 720.833 1399.77 705.983 1398.26 689.94 1388.23 C 673.62 1378.21 662.09 1361.97 658.011 1343.26 C 654.867 1329.47 656.007 1290.3 656.015 1274.64 L 655.998 1155.82 L 655.984 1000.19 C 655.984 977.372 656.136 953.956 656.018 931.2 C 655.783 885.762 677.014 861.554 720.564 852.365 z"/>
<path transform="translate(0,0)" fill="rgb(111,170,169)" d="M 1117.2 852.345 C 1158.94 851.493 1191.84 878.15 1193.48 921.544 C 1194.54 949.426 1193.83 977.85 1193.83 1005.81 L 1193.88 1167.07 L 1193.9 1278.19 C 1193.9 1297.99 1194.93 1320.78 1192.69 1340.3 C 1188.94 1373.06 1159.79 1396.72 1127.41 1398.61 C 1097.53 1402.62 1060.06 1375.41 1054.95 1345.68 C 1050.54 1320.07 1052.38 1288.05 1052.36 1261.51 L 1052.32 1117.76 L 1052.34 986.544 C 1052.36 964.312 1051.22 940.085 1053.18 918.114 C 1056.62 879.614 1082.02 859.249 1117.2 852.345 z"/>
<path transform="translate(0,0)" fill="rgb(68,131,135)" d="M 525.747 1045.45 C 541.025 1043.95 554.848 1048.62 567.454 1056.58 C 605.882 1080.85 598.429 1130.68 598.362 1169.09 L 598.125 1303 L 598.355 1447.28 C 598.525 1474.09 599.705 1502.33 598.002 1529.01 C 595.821 1563.2 568.211 1587.98 535.425 1592.41 C 514.37 1592.77 497.73 1588.79 481.412 1574.89 C 466.931 1562.55 458.439 1544.84 458 1525.82 C 457.357 1497.91 457.67 1468.99 457.678 1441 L 457.681 1278.92 L 457.676 1165.19 C 457.685 1145.79 456.435 1122.33 458.94 1103.48 C 463.474 1069.37 491.992 1047.24 525.747 1045.45 z"/>
<path transform="translate(0,0)" fill="rgb(111,170,169)" d="M 1571.46 980.637 C 1563.3 989.448 1553.89 996.234 1542.48 1000.17 C 1524.97 1006.11 1505.82 1004.87 1489.22 996.735 C 1437.87 971.101 1449.5 909.104 1449.47 860.449 L 1450.04 682.475 L 1450.07 575.472 C 1450.08 555.814 1449.77 535.566 1450.62 515.961 C 1450.89 509.704 1454.46 500.173 1457.35 494.47 C 1465.92 477.465 1480.97 464.621 1499.1 458.827 C 1516.25 453.336 1536.74 454.81 1552.3 463.366 C 1592.68 485.567 1591.61 523.57 1590.22 563.904 C 1589.91 572.658 1590.19 582.38 1590.19 591.111 L 1590.18 712.713 L 1590.17 855.812 C 1590.2 873.597 1592.95 946.812 1584.72 958.175 C 1581.12 967.258 1577.2 972.887 1571.46 980.637 z"/>
<path transform="translate(0,0)" fill="rgb(68,131,135)" d="M 1571.46 980.637 C 1570.11 973.361 1567.61 964.451 1577.43 960.578 L 1577.99 963.046 C 1580.01 963.573 1577.98 961.062 1584.72 958.175 C 1581.12 967.258 1577.2 972.887 1571.46 980.637 z"/>
</svg>